<?xml version="1.0" encoding="utf-8" standalone="no"?>
<!DOCTYPE svg PUBLIC "-//W3C//DTD SVG 1.1//EN"
  "http://www.w3.org/Graphics/SVG/1.1/DTD/svg11.dtd">
<svg xmlns:xlink="http://www.w3.org/1999/xlink" width="756pt" height="302.4pt" viewBox="0 0 756 302.4" xmlns="http://www.w3.org/2000/svg" version="1.1">
 <metadata>
  <rdf:RDF xmlns:dc="http://purl.org/dc/elements/1.1/" xmlns:cc="http://creativecommons.org/ns#" xmlns:rdf="http://www.w3.org/1999/02/22-rdf-syntax-ns#">
   <cc:Work>
    <dc:type rdf:resource="http://purl.org/dc/dcmitype/StillImage"/>
    <dc:date>2026-08-21T06:33:01.696157</dc:date>
    <dc:format>image/svg+xml</dc:format>
    <dc:creator>
     <cc:Agent>
      <dc:title>plot_mandel_implicit_biot.py</dc:title>
     </cc:Agent>
    </dc:creator>
   </cc:Work>
  </rdf:RDF>
 </metadata>
 <defs>
  <style type="text/css">*{stroke-linejoin: round; stroke-linecap: butt}</style>
 </defs>
 <g id="figure_1">
  <g id="patch_1">
   <path d="M 0 302.4
L 756 302.4
L 756 0
L 0 0
z
" style="fill: #ffffff"/>
  </g>
  <g id="axes_1">
   <g id="patch_2">
    <path d="M 36.403365 269.04351
L 368.642656 269.04351
L 368.642656 18.118365
L 36.403365 18.118365
z
" style="fill: #ffffff"/>
   </g>
   <g id="matplotlib.axis_1">
    <g id="xtick_1">
     <g id="line2d_1">
      <path d="M 50.642192 269.04351
L 50.642192 18.118365
" clip-path="url(#p7629ad5401)" style="fill: none; stroke: #b0b0b0; stroke-opacity: 0.25; stroke-width: 0.8; stroke-linecap: square"/>
     </g>
     <g id="line2d_2">
      <defs>
       <path id="mf8ec010021" d="M 0 0
L 0 3.5
" style="stroke: #000000; stroke-width: 0.8"/>
      </defs>
      <g>
       <use xlink:href="#mf8ec010021" x="50.642192" y="269.04351" style="stroke: #000000; stroke-width: 0.8"/>
      </g>
     </g>
     <g id="text_1">
      <!-- 0.0 -->
      <g transform="translate(42.690629 283.641948) scale(0.1 -0.1)">
       <defs>
        <path id="DejaVuSans-30" d="M 2034 4250
Q 1547 4250 1301 3770
Q 1056 3291 1056 2328
Q 1056 1369 1301 889
Q 1547 409 2034 409
Q 2525 409 2770 889
Q 3016 1369 3016 2328
Q 3016 3291 2770 3770
Q 2525 4250 2034 4250
z
M 2034 4750
Q 2819 4750 3233 4129
Q 3647 3509 3647 2328
Q 3647 1150 3233 529
Q 2819 -91 2034 -91
Q 1250 -91 836 529
Q 422 1150 422 2328
Q 422 3509 836 4129
Q 1250 4750 2034 4750
z
" transform="scale(0.015625)"/>
        <path id="DejaVuSans-2e" d="M 684 794
L 1344 794
L 1344 0
L 684 0
L 684 794
z
" transform="scale(0.015625)"/>
       </defs>
       <use xlink:href="#DejaVuSans-30"/>
       <use xlink:href="#DejaVuSans-2e" transform="translate(63.623047 0)"/>
       <use xlink:href="#DejaVuSans-30" transform="translate(95.410156 0)"/>
      </g>
     </g>
    </g>
    <g id="xtick_2">
     <g id="line2d_3">
      <path d="M 93.790152 269.04351
L 93.790152 18.118365
" clip-path="url(#p7629ad5401)" style="fill: none; stroke: #b0b0b0; stroke-opacity: 0.25; stroke-width: 0.8; stroke-linecap: square"/>
     </g>
     <g id="line2d_4">
      <g>
       <use xlink:href="#mf8ec010021" x="93.790152" y="269.04351" style="stroke: #000000; stroke-width: 0.8"/>
      </g>
     </g>
     <g id="text_2">
      <!-- 0.1 -->
      <g transform="translate(85.838589 283.641948) scale(0.1 -0.1)">
       <defs>
        <path id="DejaVuSans-31" d="M 794 531
L 1825 531
L 1825 4091
L 703 3866
L 703 4441
L 1819 4666
L 2450 4666
L 2450 531
L 3481 531
L 3481 0
L 794 0
L 794 531
z
" transform="scale(0.015625)"/>
       </defs>
       <use xlink:href="#DejaVuSans-30"/>
       <use xlink:href="#DejaVuSans-2e" transform="translate(63.623047 0)"/>
       <use xlink:href="#DejaVuSans-31" transform="translate(95.410156 0)"/>
      </g>
     </g>
    </g>
    <g id="xtick_3">
     <g id="line2d_5">
      <path d="M 136.938112 269.04351
L 136.938112 18.118365
" clip-path="url(#p7629ad5401)" style="fill: none; stroke: #b0b0b0; stroke-opacity: 0.25; stroke-width: 0.8; stroke-linecap: square"/>
     </g>
     <g id="line2d_6">
      <g>
       <use xlink:href="#mf8ec010021" x="136.938112" y="269.04351" style="stroke: #000000; stroke-width: 0.8"/>
      </g>
     </g>
     <g id="text_3">
      <!-- 0.2 -->
      <g transform="translate(128.986549 283.641948) scale(0.1 -0.1)">
       <defs>
        <path id="DejaVuSans-32" d="M 1228 531
L 3431 531
L 3431 0
L 469 0
L 469 531
Q 828 903 1448 1529
Q 2069 2156 2228 2338
Q 2531 2678 2651 2914
Q 2772 3150 2772 3378
Q 2772 3750 2511 3984
Q 2250 4219 1831 4219
Q 1534 4219 1204 4116
Q 875 4013 500 3803
L 500 4441
Q 881 4594 1212 4672
Q 1544 4750 1819 4750
Q 2544 4750 2975 4387
Q 3406 4025 3406 3419
Q 3406 3131 3298 2873
Q 3191 2616 2906 2266
Q 2828 2175 2409 1742
Q 1991 1309 1228 531
z
" transform="scale(0.015625)"/>
       </defs>
       <use xlink:href="#DejaVuSans-30"/>
       <use xlink:href="#DejaVuSans-2e" transform="translate(63.623047 0)"/>
       <use xlink:href="#DejaVuSans-32" transform="translate(95.410156 0)"/>
      </g>
     </g>
    </g>
    <g id="xtick_4">
     <g id="line2d_7">
      <path d="M 180.086071 269.04351
L 180.086071 18.118365
" clip-path="url(#p7629ad5401)" style="fill: none; stroke: #b0b0b0; stroke-opacity: 0.25; stroke-width: 0.8; stroke-linecap: square"/>
     </g>
     <g id="line2d_8">
      <g>
       <use xlink:href="#mf8ec010021" x="180.086071" y="269.04351" style="stroke: #000000; stroke-width: 0.8"/>
      </g>
     </g>
     <g id="text_4">
      <!-- 0.3 -->
      <g transform="translate(172.134509 283.641948) scale(0.1 -0.1)">
       <defs>
        <path id="DejaVuSans-33" d="M 2597 2516
Q 3050 2419 3304 2112
Q 3559 1806 3559 1356
Q 3559 666 3084 287
Q 2609 -91 1734 -91
Q 1441 -91 1130 -33
Q 819 25 488 141
L 488 750
Q 750 597 1062 519
Q 1375 441 1716 441
Q 2309 441 2620 675
Q 2931 909 2931 1356
Q 2931 1769 2642 2001
Q 2353 2234 1838 2234
L 1294 2234
L 1294 2753
L 1863 2753
Q 2328 2753 2575 2939
Q 2822 3125 2822 3475
Q 2822 3834 2567 4026
Q 2313 4219 1838 4219
Q 1578 4219 1281 4162
Q 984 4106 628 3988
L 628 4550
Q 988 4650 1302 4700
Q 1616 4750 1894 4750
Q 2613 4750 3031 4423
Q 3450 4097 3450 3541
Q 3450 3153 3228 2886
Q 3006 2619 2597 2516
z
" transform="scale(0.015625)"/>
       </defs>
       <use xlink:href="#DejaVuSans-30"/>
       <use xlink:href="#DejaVuSans-2e" transform="translate(63.623047 0)"/>
       <use xlink:href="#DejaVuSans-33" transform="translate(95.410156 0)"/>
      </g>
     </g>
    </g>
    <g id="xtick_5">
     <g id="line2d_9">
      <path d="M 223.234031 269.04351
L 223.234031 18.118365
" clip-path="url(#p7629ad5401)" style="fill: none; stroke: #b0b0b0; stroke-opacity: 0.25; stroke-width: 0.8; stroke-linecap: square"/>
     </g>
     <g id="line2d_10">
      <g>
       <use xlink:href="#mf8ec010021" x="223.234031" y="269.04351" style="stroke: #000000; stroke-width: 0.8"/>
      </g>
     </g>
     <g id="text_5">
      <!-- 0.4 -->
      <g transform="translate(215.282469 283.641948) scale(0.1 -0.1)">
       <defs>
        <path id="DejaVuSans-34" d="M 2419 4116
L 825 1625
L 2419 1625
L 2419 4116
z
M 2253 4666
L 3047 4666
L 3047 1625
L 3713 1625
L 3713 1100
L 3047 1100
L 3047 0
L 2419 0
L 2419 1100
L 313 1100
L 313 1709
L 2253 4666
z
" transform="scale(0.015625)"/>
       </defs>
       <use xlink:href="#DejaVuSans-30"/>
       <use xlink:href="#DejaVuSans-2e" transform="translate(63.623047 0)"/>
       <use xlink:href="#DejaVuSans-34" transform="translate(95.410156 0)"/>
      </g>
     </g>
    </g>
    <g id="xtick_6">
     <g id="line2d_11">
      <path d="M 266.381991 269.04351
L 266.381991 18.118365
" clip-path="url(#p7629ad5401)" style="fill: none; stroke: #b0b0b0; stroke-opacity: 0.25; stroke-width: 0.8; stroke-linecap: square"/>
     </g>
     <g id="line2d_12">
      <g>
       <use xlink:href="#mf8ec010021" x="266.381991" y="269.04351" style="stroke: #000000; stroke-width: 0.8"/>
      </g>
     </g>
     <g id="text_6">
      <!-- 0.5 -->
      <g transform="translate(258.430429 283.641948) scale(0.1 -0.1)">
       <defs>
        <path id="DejaVuSans-35" d="M 691 4666
L 3169 4666
L 3169 4134
L 1269 4134
L 1269 2991
Q 1406 3038 1543 3061
Q 1681 3084 1819 3084
Q 2600 3084 3056 2656
Q 3513 2228 3513 1497
Q 3513 744 3044 326
Q 2575 -91 1722 -91
Q 1428 -91 1123 -41
Q 819 9 494 109
L 494 744
Q 775 591 1075 516
Q 1375 441 1709 441
Q 2250 441 2565 725
Q 2881 1009 2881 1497
Q 2881 1984 2565 2268
Q 2250 2553 1709 2553
Q 1456 2553 1204 2497
Q 953 2441 691 2322
L 691 4666
z
" transform="scale(0.015625)"/>
       </defs>
       <use xlink:href="#DejaVuSans-30"/>
       <use xlink:href="#DejaVuSans-2e" transform="translate(63.623047 0)"/>
       <use xlink:href="#DejaVuSans-35" transform="translate(95.410156 0)"/>
      </g>
     </g>
    </g>
    <g id="xtick_7">
     <g id="line2d_13">
      <path d="M 309.529951 269.04351
L 309.529951 18.118365
" clip-path="url(#p7629ad5401)" style="fill: none; stroke: #b0b0b0; stroke-opacity: 0.25; stroke-width: 0.8; stroke-linecap: square"/>
     </g>
     <g id="line2d_14">
      <g>
       <use xlink:href="#mf8ec010021" x="309.529951" y="269.04351" style="stroke: #000000; stroke-width: 0.8"/>
      </g>
     </g>
     <g id="text_7">
      <!-- 0.6 -->
      <g transform="translate(301.578389 283.641948) scale(0.1 -0.1)">
       <defs>
        <path id="DejaVuSans-36" d="M 2113 2584
Q 1688 2584 1439 2293
Q 1191 2003 1191 1497
Q 1191 994 1439 701
Q 1688 409 2113 409
Q 2538 409 2786 701
Q 3034 994 3034 1497
Q 3034 2003 2786 2293
Q 2538 2584 2113 2584
z
M 3366 4563
L 3366 3988
Q 3128 4100 2886 4159
Q 2644 4219 2406 4219
Q 1781 4219 1451 3797
Q 1122 3375 1075 2522
Q 1259 2794 1537 2939
Q 1816 3084 2150 3084
Q 2853 3084 3261 2657
Q 3669 2231 3669 1497
Q 3669 778 3244 343
Q 2819 -91 2113 -91
Q 1303 -91 875 529
Q 447 1150 447 2328
Q 447 3434 972 4092
Q 1497 4750 2381 4750
Q 2619 4750 2861 4703
Q 3103 4656 3366 4563
z
" transform="scale(0.015625)"/>
       </defs>
       <use xlink:href="#DejaVuSans-30"/>
       <use xlink:href="#DejaVuSans-2e" transform="translate(63.623047 0)"/>
       <use xlink:href="#DejaVuSans-36" transform="translate(95.410156 0)"/>
      </g>
     </g>
    </g>
    <g id="xtick_8">
     <g id="line2d_15">
      <path d="M 352.677911 269.04351
L 352.677911 18.118365
" clip-path="url(#p7629ad5401)" style="fill: none; stroke: #b0b0b0; stroke-opacity: 0.25; stroke-width: 0.8; stroke-linecap: square"/>
     </g>
     <g id="line2d_16">
      <g>
       <use xlink:href="#mf8ec010021" x="352.677911" y="269.04351" style="stroke: #000000; stroke-width: 0.8"/>
      </g>
     </g>
     <g id="text_8">
      <!-- 0.7 -->
      <g transform="translate(344.726349 283.641948) scale(0.1 -0.1)">
       <defs>
        <path id="DejaVuSans-37" d="M 525 4666
L 3525 4666
L 3525 4397
L 1831 0
L 1172 0
L 2766 4134
L 525 4134
L 525 4666
z
" transform="scale(0.015625)"/>
       </defs>
       <use xlink:href="#DejaVuSans-30"/>
       <use xlink:href="#DejaVuSans-2e" transform="translate(63.623047 0)"/>
       <use xlink:href="#DejaVuSans-37" transform="translate(95.410156 0)"/>
      </g>
     </g>
    </g>
    <g id="text_9">
     <!-- time [s] -->
     <g transform="translate(183.131604 297.320073) scale(0.1 -0.1)">
      <defs>
       <path id="DejaVuSans-74" d="M 1172 4494
L 1172 3500
L 2356 3500
L 2356 3053
L 1172 3053
L 1172 1153
Q 1172 725 1289 603
Q 1406 481 1766 481
L 2356 481
L 2356 0
L 1766 0
Q 1100 0 847 248
Q 594 497 594 1153
L 594 3053
L 172 3053
L 172 3500
L 594 3500
L 594 4494
L 1172 4494
z
" transform="scale(0.015625)"/>
       <path id="DejaVuSans-69" d="M 603 3500
L 1178 3500
L 1178 0
L 603 0
L 603 3500
z
M 603 4863
L 1178 4863
L 1178 4134
L 603 4134
L 603 4863
z
" transform="scale(0.015625)"/>
       <path id="DejaVuSans-6d" d="M 3328 2828
Q 3544 3216 3844 3400
Q 4144 3584 4550 3584
Q 5097 3584 5394 3201
Q 5691 2819 5691 2113
L 5691 0
L 5113 0
L 5113 2094
Q 5113 2597 4934 2840
Q 4756 3084 4391 3084
Q 3944 3084 3684 2787
Q 3425 2491 3425 1978
L 3425 0
L 2847 0
L 2847 2094
Q 2847 2600 2669 2842
Q 2491 3084 2119 3084
Q 1678 3084 1418 2786
Q 1159 2488 1159 1978
L 1159 0
L 581 0
L 581 3500
L 1159 3500
L 1159 2956
Q 1356 3278 1631 3431
Q 1906 3584 2284 3584
Q 2666 3584 2933 3390
Q 3200 3197 3328 2828
z
" transform="scale(0.015625)"/>
       <path id="DejaVuSans-65" d="M 3597 1894
L 3597 1613
L 953 1613
Q 991 1019 1311 708
Q 1631 397 2203 397
Q 2534 397 2845 478
Q 3156 559 3463 722
L 3463 178
Q 3153 47 2828 -22
Q 2503 -91 2169 -91
Q 1331 -91 842 396
Q 353 884 353 1716
Q 353 2575 817 3079
Q 1281 3584 2069 3584
Q 2775 3584 3186 3129
Q 3597 2675 3597 1894
z
M 3022 2063
Q 3016 2534 2758 2815
Q 2500 3097 2075 3097
Q 1594 3097 1305 2825
Q 1016 2553 972 2059
L 3022 2063
z
" transform="scale(0.015625)"/>
       <path id="DejaVuSans-20" transform="scale(0.015625)"/>
       <path id="DejaVuSans-5b" d="M 550 4863
L 1875 4863
L 1875 4416
L 1125 4416
L 1125 -397
L 1875 -397
L 1875 -844
L 550 -844
L 550 4863
z
" transform="scale(0.015625)"/>
       <path id="DejaVuSans-73" d="M 2834 3397
L 2834 2853
Q 2591 2978 2328 3040
Q 2066 3103 1784 3103
Q 1356 3103 1142 2972
Q 928 2841 928 2578
Q 928 2378 1081 2264
Q 1234 2150 1697 2047
L 1894 2003
Q 2506 1872 2764 1633
Q 3022 1394 3022 966
Q 3022 478 2636 193
Q 2250 -91 1575 -91
Q 1294 -91 989 -36
Q 684 19 347 128
L 347 722
Q 666 556 975 473
Q 1284 391 1588 391
Q 1994 391 2212 530
Q 2431 669 2431 922
Q 2431 1156 2273 1281
Q 2116 1406 1581 1522
L 1381 1569
Q 847 1681 609 1914
Q 372 2147 372 2553
Q 372 3047 722 3315
Q 1072 3584 1716 3584
Q 2034 3584 2315 3537
Q 2597 3491 2834 3397
z
" transform="scale(0.015625)"/>
       <path id="DejaVuSans-5d" d="M 1947 4863
L 1947 -844
L 622 -844
L 622 -397
L 1369 -397
L 1369 4416
L 622 4416
L 622 4863
L 1947 4863
z
" transform="scale(0.015625)"/>
      </defs>
      <use xlink:href="#DejaVuSans-74"/>
      <use xlink:href="#DejaVuSans-69" transform="translate(39.208984 0)"/>
      <use xlink:href="#DejaVuSans-6d" transform="translate(66.992188 0)"/>
      <use xlink:href="#DejaVuSans-65" transform="translate(164.404297 0)"/>
      <use xlink:href="#DejaVuSans-20" transform="translate(225.927734 0)"/>
      <use xlink:href="#DejaVuSans-5b" transform="translate(257.714844 0)"/>
      <use xlink:href="#DejaVuSans-73" transform="translate(296.728516 0)"/>
      <use xlink:href="#DejaVuSans-5d" transform="translate(348.828125 0)"/>
     </g>
    </g>
   </g>
   <g id="matplotlib.axis_2">
    <g id="ytick_1">
     <g id="line2d_17">
      <path d="M 36.403365 258.046421
L 368.642656 258.046421
" clip-path="url(#p7629ad5401)" style="fill: none; stroke: #b0b0b0; stroke-opacity: 0.25; stroke-width: 0.8; stroke-linecap: square"/>
     </g>
     <g id="line2d_18">
      <defs>
       <path id="m0c32bdb2d2" d="M 0 0
L -3.5 0
" style="stroke: #000000; stroke-width: 0.8"/>
      </defs>
      <g>
       <use xlink:href="#m0c32bdb2d2" x="36.403365" y="258.046421" style="stroke: #000000; stroke-width: 0.8"/>
      </g>
     </g>
     <g id="text_10">
      <!-- 0 -->
      <g transform="translate(23.040865 261.845639) scale(0.1 -0.1)">
       <use xlink:href="#DejaVuSans-30"/>
      </g>
     </g>
    </g>
    <g id="ytick_2">
     <g id="line2d_19">
      <path d="M 36.403365 212.852946
L 368.642656 212.852946
" clip-path="url(#p7629ad5401)" style="fill: none; stroke: #b0b0b0; stroke-opacity: 0.25; stroke-width: 0.8; stroke-linecap: square"/>
     </g>
     <g id="line2d_20">
      <g>
       <use xlink:href="#m0c32bdb2d2" x="36.403365" y="212.852946" style="stroke: #000000; stroke-width: 0.8"/>
      </g>
     </g>
     <g id="text_11">
      <!-- 10 -->
      <g transform="translate(16.678365 216.652164) scale(0.1 -0.1)">
       <use xlink:href="#DejaVuSans-31"/>
       <use xlink:href="#DejaVuSans-30" transform="translate(63.623047 0)"/>
      </g>
     </g>
    </g>
    <g id="ytick_3">
     <g id="line2d_21">
      <path d="M 36.403365 167.659471
L 368.642656 167.659471
" clip-path="url(#p7629ad5401)" style="fill: none; stroke: #b0b0b0; stroke-opacity: 0.25; stroke-width: 0.8; stroke-linecap: square"/>
     </g>
     <g id="line2d_22">
      <g>
       <use xlink:href="#m0c32bdb2d2" x="36.403365" y="167.659471" style="stroke: #000000; stroke-width: 0.8"/>
      </g>
     </g>
     <g id="text_12">
      <!-- 20 -->
      <g transform="translate(16.678365 171.458689) scale(0.1 -0.1)">
       <use xlink:href="#DejaVuSans-32"/>
       <use xlink:href="#DejaVuSans-30" transform="translate(63.623047 0)"/>
      </g>
     </g>
    </g>
    <g id="ytick_4">
     <g id="line2d_23">
      <path d="M 36.403365 122.465996
L 368.642656 122.465996
" clip-path="url(#p7629ad5401)" style="fill: none; stroke: #b0b0b0; stroke-opacity: 0.25; stroke-width: 0.8; stroke-linecap: square"/>
     </g>
     <g id="line2d_24">
      <g>
       <use xlink:href="#m0c32bdb2d2" x="36.403365" y="122.465996" style="stroke: #000000; stroke-width: 0.8"/>
      </g>
     </g>
     <g id="text_13">
      <!-- 30 -->
      <g transform="translate(16.678365 126.265214) scale(0.1 -0.1)">
       <use xlink:href="#DejaVuSans-33"/>
       <use xlink:href="#DejaVuSans-30" transform="translate(63.623047 0)"/>
      </g>
     </g>
    </g>
    <g id="ytick_5">
     <g id="line2d_25">
      <path d="M 36.403365 77.272521
L 368.642656 77.272521
" clip-path="url(#p7629ad5401)" style="fill: none; stroke: #b0b0b0; stroke-opacity: 0.25; stroke-width: 0.8; stroke-linecap: square"/>
     </g>
     <g id="line2d_26">
      <g>
       <use xlink:href="#m0c32bdb2d2" x="36.403365" y="77.272521" style="stroke: #000000; stroke-width: 0.8"/>
      </g>
     </g>
     <g id="text_14">
      <!-- 40 -->
      <g transform="translate(16.678365 81.071739) scale(0.1 -0.1)">
       <use xlink:href="#DejaVuSans-34"/>
       <use xlink:href="#DejaVuSans-30" transform="translate(63.623047 0)"/>
      </g>
     </g>
    </g>
    <g id="ytick_6">
     <g id="line2d_27">
      <path d="M 36.403365 32.079046
L 368.642656 32.079046
" clip-path="url(#p7629ad5401)" style="fill: none; stroke: #b0b0b0; stroke-opacity: 0.25; stroke-width: 0.8; stroke-linecap: square"/>
     </g>
     <g id="line2d_28">
      <g>
       <use xlink:href="#m0c32bdb2d2" x="36.403365" y="32.079046" style="stroke: #000000; stroke-width: 0.8"/>
      </g>
     </g>
     <g id="text_15">
      <!-- 50 -->
      <g transform="translate(16.678365 35.878265) scale(0.1 -0.1)">
       <use xlink:href="#DejaVuSans-35"/>
       <use xlink:href="#DejaVuSans-30" transform="translate(63.623047 0)"/>
      </g>
     </g>
    </g>
    <g id="text_16">
     <!-- water pressure [kPa] -->
     <g transform="translate(10.598677 195.246563) rotate(-90) scale(0.1 -0.1)">
      <defs>
       <path id="DejaVuSans-77" d="M 269 3500
L 844 3500
L 1563 769
L 2278 3500
L 2956 3500
L 3675 769
L 4391 3500
L 4966 3500
L 4050 0
L 3372 0
L 2619 2869
L 1863 0
L 1184 0
L 269 3500
z
" transform="scale(0.015625)"/>
       <path id="DejaVuSans-61" d="M 2194 1759
Q 1497 1759 1228 1600
Q 959 1441 959 1056
Q 959 750 1161 570
Q 1363 391 1709 391
Q 2188 391 2477 730
Q 2766 1069 2766 1631
L 2766 1759
L 2194 1759
z
M 3341 1997
L 3341 0
L 2766 0
L 2766 531
Q 2569 213 2275 61
Q 1981 -91 1556 -91
Q 1019 -91 701 211
Q 384 513 384 1019
Q 384 1609 779 1909
Q 1175 2209 1959 2209
L 2766 2209
L 2766 2266
Q 2766 2663 2505 2880
Q 2244 3097 1772 3097
Q 1472 3097 1187 3025
Q 903 2953 641 2809
L 641 3341
Q 956 3463 1253 3523
Q 1550 3584 1831 3584
Q 2591 3584 2966 3190
Q 3341 2797 3341 1997
z
" transform="scale(0.015625)"/>
       <path id="DejaVuSans-72" d="M 2631 2963
Q 2534 3019 2420 3045
Q 2306 3072 2169 3072
Q 1681 3072 1420 2755
Q 1159 2438 1159 1844
L 1159 0
L 581 0
L 581 3500
L 1159 3500
L 1159 2956
Q 1341 3275 1631 3429
Q 1922 3584 2338 3584
Q 2397 3584 2469 3576
Q 2541 3569 2628 3553
L 2631 2963
z
" transform="scale(0.015625)"/>
       <path id="DejaVuSans-70" d="M 1159 525
L 1159 -1331
L 581 -1331
L 581 3500
L 1159 3500
L 1159 2969
Q 1341 3281 1617 3432
Q 1894 3584 2278 3584
Q 2916 3584 3314 3078
Q 3713 2572 3713 1747
Q 3713 922 3314 415
Q 2916 -91 2278 -91
Q 1894 -91 1617 61
Q 1341 213 1159 525
z
M 3116 1747
Q 3116 2381 2855 2742
Q 2594 3103 2138 3103
Q 1681 3103 1420 2742
Q 1159 2381 1159 1747
Q 1159 1113 1420 752
Q 1681 391 2138 391
Q 2594 391 2855 752
Q 3116 1113 3116 1747
z
" transform="scale(0.015625)"/>
       <path id="DejaVuSans-75" d="M 544 1381
L 544 3500
L 1119 3500
L 1119 1403
Q 1119 906 1312 657
Q 1506 409 1894 409
Q 2359 409 2629 706
Q 2900 1003 2900 1516
L 2900 3500
L 3475 3500
L 3475 0
L 2900 0
L 2900 538
Q 2691 219 2414 64
Q 2138 -91 1772 -91
Q 1169 -91 856 284
Q 544 659 544 1381
z
M 1991 3584
L 1991 3584
z
" transform="scale(0.015625)"/>
       <path id="DejaVuSans-6b" d="M 581 4863
L 1159 4863
L 1159 1991
L 2875 3500
L 3609 3500
L 1753 1863
L 3688 0
L 2938 0
L 1159 1709
L 1159 0
L 581 0
L 581 4863
z
" transform="scale(0.015625)"/>
       <path id="DejaVuSans-50" d="M 1259 4147
L 1259 2394
L 2053 2394
Q 2494 2394 2734 2622
Q 2975 2850 2975 3272
Q 2975 3691 2734 3919
Q 2494 4147 2053 4147
L 1259 4147
z
M 628 4666
L 2053 4666
Q 2838 4666 3239 4311
Q 3641 3956 3641 3272
Q 3641 2581 3239 2228
Q 2838 1875 2053 1875
L 1259 1875
L 1259 0
L 628 0
L 628 4666
z
" transform="scale(0.015625)"/>
      </defs>
      <use xlink:href="#DejaVuSans-77"/>
      <use xlink:href="#DejaVuSans-61" transform="translate(81.787109 0)"/>
      <use xlink:href="#DejaVuSans-74" transform="translate(143.066406 0)"/>
      <use xlink:href="#DejaVuSans-65" transform="translate(182.275391 0)"/>
      <use xlink:href="#DejaVuSans-72" transform="translate(243.798828 0)"/>
      <use xlink:href="#DejaVuSans-20" transform="translate(284.912109 0)"/>
      <use xlink:href="#DejaVuSans-70" transform="translate(316.699219 0)"/>
      <use xlink:href="#DejaVuSans-72" transform="translate(380.175781 0)"/>
      <use xlink:href="#DejaVuSans-65" transform="translate(419.039062 0)"/>
      <use xlink:href="#DejaVuSans-73" transform="translate(480.5625 0)"/>
      <use xlink:href="#DejaVuSans-73" transform="translate(532.662109 0)"/>
      <use xlink:href="#DejaVuSans-75" transform="translate(584.761719 0)"/>
      <use xlink:href="#DejaVuSans-72" transform="translate(648.140625 0)"/>
      <use xlink:href="#DejaVuSans-65" transform="translate(687.003906 0)"/>
      <use xlink:href="#DejaVuSans-20" transform="translate(748.527344 0)"/>
      <use xlink:href="#DejaVuSans-5b" transform="translate(780.314453 0)"/>
      <use xlink:href="#DejaVuSans-6b" transform="translate(819.328125 0)"/>
      <use xlink:href="#DejaVuSans-50" transform="translate(877.238281 0)"/>
      <use xlink:href="#DejaVuSans-61" transform="translate(933.041016 0)"/>
      <use xlink:href="#DejaVuSans-5d" transform="translate(994.320312 0)"/>
     </g>
    </g>
   </g>
   <g id="line2d_29">
    <path d="M 51.505151 36.630045
L 53.231069 33.203589
L 54.956988 31.47252
L 55.819947 30.89654
L 56.682906 30.567349
L 57.545865 30.851196
L 58.408825 31.41093
L 59.271784 32.240996
L 60.134743 33.326438
L 60.997702 34.646098
L 62.723621 37.888304
L 63.58658 39.759166
L 65.312498 44.228067
L 67.901376 51.564678
L 71.353213 61.968656
L 77.393927 80.48839
L 81.708723 93.227096
L 86.023519 105.165804
L 89.475356 114.164755
L 93.790152 124.715995
L 97.241988 132.588043
L 101.556784 141.832557
L 105.008621 148.687358
L 108.460458 155.20885
L 111.912295 161.278516
L 115.364132 167.051642
L 118.815968 172.424174
L 122.267805 177.53373
L 126.582601 183.449509
L 130.034438 187.891054
L 134.349234 193.054828
L 137.801071 196.915313
L 142.115867 201.42284
L 146.430663 205.579511
L 150.745459 209.461675
L 155.060255 213.03967
L 159.375051 216.35354
L 164.552806 220.020635
L 169.730561 223.359676
L 174.908316 226.400811
L 180.086071 229.180699
L 186.126786 232.119569
L 192.1675 234.758539
L 198.208215 237.128302
L 204.248929 239.256402
L 210.289643 241.167553
L 217.193317 243.116203
L 224.096991 244.840102
L 231.863623 246.543687
L 239.630256 248.027313
L 248.259848 249.451761
L 257.752399 250.785883
L 267.24495 251.914918
L 278.46342 253.023182
L 290.544849 253.994773
L 305.215155 254.925214
L 320.748421 255.679675
L 338.870564 256.332136
L 353.54087 256.726026
L 353.54087 256.726026
" clip-path="url(#p7629ad5401)" style="fill: none; stroke: #005f73; stroke-width: 1.7; stroke-linecap: square"/>
   </g>
   <g id="line2d_30">
    <path d="M 51.505151 36.643133
L 52.36811 34.653061
L 53.231069 33.108354
L 54.094029 31.813695
L 54.956988 30.751939
L 55.819947 29.978663
L 56.682906 29.55677
L 57.545865 29.524053
L 58.408825 29.887883
L 59.271784 30.631871
L 60.134743 31.724825
L 60.997702 33.128198
L 62.723621 36.70422
L 64.449539 41.055578
L 67.038417 48.50218
L 71.353213 62.011967
L 77.393927 81.002159
L 81.708723 93.856054
L 86.023519 105.912816
L 89.475356 114.962664
L 92.927192 123.493573
L 96.379029 131.525823
L 99.830866 139.083702
L 103.282703 146.192733
L 106.73454 152.878292
L 110.186376 159.164947
L 113.638213 165.07616
L 117.953009 171.970987
L 122.267805 178.354608
L 126.582601 184.264854
L 130.897397 189.736798
L 135.212193 194.80293
L 139.526989 199.493341
L 143.841785 203.835892
L 148.156581 207.856382
L 152.471377 211.578695
L 156.786173 215.024945
L 161.100969 218.215607
L 165.415765 221.169634
L 170.59352 224.426729
L 175.771275 227.396145
L 180.949031 230.103291
L 186.126786 232.571332
L 191.304541 234.821386
L 197.345255 237.196529
L 203.38597 239.328775
L 209.426684 241.242963
L 216.330358 243.192097
L 223.234031 244.91514
L 231.000664 246.615846
L 238.767297 248.096283
L 247.396889 249.517446
L 256.88944 250.847434
L 267.24495 252.062956
L 278.46342 253.1493
L 290.544849 254.099707
L 304.352196 254.96221
L 319.885462 255.709381
L 338.007605 256.355558
L 353.54087 256.765181
L 353.54087 256.765181
" clip-path="url(#p7629ad5401)" style="fill: none; stroke-dasharray: 4.07,1.76; stroke-dashoffset: 0; stroke: #005f73; stroke-width: 1.1"/>
   </g>
   <g id="line2d_31">
    <path d="M 51.505151 36.697307
L 52.36811 35.220576
L 53.231069 34.115711
L 54.094029 34.110051
L 54.956988 34.589855
L 55.819947 35.517912
L 56.682906 36.826767
L 58.408825 40.974839
L 60.997702 48.380349
L 64.449539 59.112099
L 68.764335 72.931709
L 74.805049 91.265593
L 79.119845 103.394864
L 82.571682 112.519699
L 86.886478 123.2044
L 90.338315 131.167473
L 94.653111 140.521279
L 98.104948 147.449085
L 101.556784 154.048296
L 105.008621 160.181844
L 108.460458 166.023343
L 111.912295 171.452299
L 115.364132 176.622329
L 119.678928 182.602354
L 123.130764 187.095162
L 127.44556 192.316097
L 130.897397 196.219967
L 136.075152 201.649869
L 140.389948 205.794216
L 144.704744 209.650985
L 149.8825 213.902803
L 154.197296 217.147878
L 158.512092 220.167646
L 163.689847 223.49661
L 168.867602 226.52753
L 173.182398 228.848779
L 179.223112 231.821404
L 185.263827 234.490565
L 191.304541 236.887354
L 197.345255 239.039658
L 203.38597 240.972499
L 209.426684 242.708332
L 216.330358 244.479109
L 223.234031 246.045649
L 231.000664 247.594258
L 239.630256 249.081661
L 249.122807 250.472387
L 259.478318 251.747369
L 270.696787 252.885027
L 281.915257 253.820269
L 295.722604 254.740802
L 311.25587 255.538702
L 329.378013 256.230493
L 350.089033 256.790526
L 353.54087 256.864967
L 353.54087 256.864967
" clip-path="url(#p7629ad5401)" style="fill: none; stroke: #ca6702; stroke-width: 1.7; stroke-linecap: square"/>
   </g>
   <g id="line2d_32">
    <path d="M 51.505151 36.643111
L 52.36811 34.666704
L 53.231069 33.344038
L 54.094029 32.812951
L 54.956988 33.127298
L 55.819947 34.17199
L 56.682906 35.778641
L 57.545865 37.792824
L 59.271784 42.59204
L 61.860661 50.729173
L 71.353213 81.387843
L 75.668009 94.305906
L 79.119845 104.025838
L 82.571682 113.198371
L 86.023519 121.839835
L 89.475356 129.973562
L 92.927192 137.625584
L 96.379029 144.822479
L 99.830866 151.590313
L 103.282703 157.954151
L 106.73454 163.937845
L 110.186376 169.563967
L 114.501172 176.126112
L 118.815968 182.201637
L 123.130764 187.826599
L 127.44556 193.034401
L 131.760356 197.855973
L 136.075152 202.319959
L 140.389948 206.452878
L 144.704744 210.279281
L 149.01954 213.821901
L 153.334336 217.101785
L 157.649132 220.138419
L 162.826888 223.486595
L 168.004643 226.539047
L 173.182398 229.321895
L 178.360153 231.858952
L 183.537908 234.171926
L 189.578623 236.613487
L 195.619337 238.805358
L 201.660051 240.773074
L 208.563725 242.776714
L 215.467399 244.547939
L 223.234031 246.296203
L 231.000664 247.81804
L 239.630256 249.278943
L 249.122807 250.646123
L 259.478318 251.895636
L 270.696787 253.012358
L 282.778216 253.989341
L 296.585563 254.875963
L 312.118829 255.644029
L 330.240972 256.308275
L 351.814952 256.864045
L 353.54087 256.899934
L 353.54087 256.899934
" clip-path="url(#p7629ad5401)" style="fill: none; stroke-dasharray: 4.07,1.76; stroke-dashoffset: 0; stroke: #ca6702; stroke-width: 1.1"/>
   </g>
   <g id="line2d_33">
    <path d="M 51.505151 58.925234
L 52.36811 83.106126
L 53.231069 102.921969
L 54.094029 118.48193
L 54.956988 130.316439
L 55.819947 139.51543
L 56.682906 146.847732
L 57.545865 153.137534
L 58.408825 158.381802
L 59.271784 162.826487
L 60.997702 169.976603
L 62.723621 175.511116
L 64.449539 180.113846
L 66.175457 184.050786
L 67.901376 187.380328
L 69.627294 190.265826
L 73.079131 195.329889
L 75.668009 198.560591
L 79.119845 202.432747
L 81.708723 205.078687
L 86.023519 209.104657
L 89.475356 212.055585
L 95.51607 216.771934
L 100.693825 220.405924
L 105.008621 223.148381
L 108.460458 225.253466
L 113.638213 228.125645
L 117.953009 230.318346
L 124.856683 233.51378
L 131.760356 236.341323
L 139.526989 239.127931
L 144.704744 240.800254
L 152.471377 243.016408
L 161.100969 245.152373
L 168.004643 246.639738
L 174.908316 247.955732
L 182.674949 249.258546
L 191.304541 250.50874
L 201.660051 251.769371
L 211.152603 252.7487
L 223.234031 253.770464
L 235.31546 254.59656
L 251.711685 255.47008
L 268.10791 256.121934
L 289.68189 256.735123
L 316.433625 257.232016
L 350.089033 257.599158
L 353.54087 257.625423
L 353.54087 257.625423
" clip-path="url(#p7629ad5401)" style="fill: none; stroke: #9b2226; stroke-width: 1.7; stroke-linecap: square"/>
   </g>
   <g id="line2d_34">
    <path d="M 51.505151 59.820068
L 52.36811 90.460771
L 53.231069 110.960604
L 54.094029 125.32096
L 54.956988 136.007802
L 55.819947 144.334713
L 56.682906 151.049528
L 57.545865 156.608645
L 58.408825 161.30721
L 60.134743 168.864255
L 61.860661 174.730307
L 63.58658 179.464593
L 65.312498 183.407676
L 67.038417 186.780971
L 68.764335 189.734706
L 71.353213 193.599005
L 73.94209 196.98227
L 76.530968 200.027233
L 79.982805 203.708556
L 83.434641 207.066421
L 87.749437 210.911959
L 92.064233 214.435784
L 96.379029 217.682378
L 100.693825 220.681278
L 105.87158 223.984072
L 111.049336 226.99353
L 116.227091 229.736585
L 121.404846 232.237143
L 126.582601 234.516761
L 132.623316 236.923076
L 138.66403 239.083292
L 144.704744 241.022587
L 151.608418 242.997284
L 158.512092 244.742925
L 166.278724 246.465935
L 174.045357 247.965789
L 182.674949 249.405589
L 192.1675 250.75302
L 202.523011 251.984484
L 213.74148 253.085075
L 225.822909 254.047946
L 239.630256 254.921761
L 255.163522 255.678731
L 273.285665 256.333382
L 294.859645 256.881124
L 321.61138 257.32374
L 353.54087 257.637822
L 353.54087 257.637822
" clip-path="url(#p7629ad5401)" style="fill: none; stroke-dasharray: 4.07,1.76; stroke-dashoffset: 0; stroke: #9b2226; stroke-width: 1.1"/>
   </g>
   <g id="patch_3">
    <path d="M 36.403365 269.04351
L 36.403365 18.118365
" style="fill: none; stroke: #000000; stroke-width: 0.8; stroke-linejoin: miter; stroke-linecap: square"/>
   </g>
   <g id="patch_4">
    <path d="M 368.642656 269.04351
L 368.642656 18.118365
" style="fill: none; stroke: #000000; stroke-width: 0.8; stroke-linejoin: miter; stroke-linecap: square"/>
   </g>
   <g id="patch_5">
    <path d="M 36.403365 269.04351
L 368.642656 269.04351
" style="fill: none; stroke: #000000; stroke-width: 0.8; stroke-linejoin: miter; stroke-linecap: square"/>
   </g>
   <g id="patch_6">
    <path d="M 36.403365 18.118365
L 368.642656 18.118365
" style="fill: none; stroke: #000000; stroke-width: 0.8; stroke-linejoin: miter; stroke-linecap: square"/>
   </g>
   <g id="text_17">
    <!-- Mandel pressure response -->
    <g transform="translate(123.726136 12.118365) scale(0.12 -0.12)">
     <defs>
      <path id="DejaVuSans-4d" d="M 628 4666
L 1569 4666
L 2759 1491
L 3956 4666
L 4897 4666
L 4897 0
L 4281 0
L 4281 4097
L 3078 897
L 2444 897
L 1241 4097
L 1241 0
L 628 0
L 628 4666
z
" transform="scale(0.015625)"/>
      <path id="DejaVuSans-6e" d="M 3513 2113
L 3513 0
L 2938 0
L 2938 2094
Q 2938 2591 2744 2837
Q 2550 3084 2163 3084
Q 1697 3084 1428 2787
Q 1159 2491 1159 1978
L 1159 0
L 581 0
L 581 3500
L 1159 3500
L 1159 2956
Q 1366 3272 1645 3428
Q 1925 3584 2291 3584
Q 2894 3584 3203 3211
Q 3513 2838 3513 2113
z
" transform="scale(0.015625)"/>
      <path id="DejaVuSans-64" d="M 2906 2969
L 2906 4863
L 3481 4863
L 3481 0
L 2906 0
L 2906 525
Q 2725 213 2448 61
Q 2172 -91 1784 -91
Q 1150 -91 751 415
Q 353 922 353 1747
Q 353 2572 751 3078
Q 1150 3584 1784 3584
Q 2172 3584 2448 3432
Q 2725 3281 2906 2969
z
M 947 1747
Q 947 1113 1208 752
Q 1469 391 1925 391
Q 2381 391 2643 752
Q 2906 1113 2906 1747
Q 2906 2381 2643 2742
Q 2381 3103 1925 3103
Q 1469 3103 1208 2742
Q 947 2381 947 1747
z
" transform="scale(0.015625)"/>
      <path id="DejaVuSans-6c" d="M 603 4863
L 1178 4863
L 1178 0
L 603 0
L 603 4863
z
" transform="scale(0.015625)"/>
      <path id="DejaVuSans-6f" d="M 1959 3097
Q 1497 3097 1228 2736
Q 959 2375 959 1747
Q 959 1119 1226 758
Q 1494 397 1959 397
Q 2419 397 2687 759
Q 2956 1122 2956 1747
Q 2956 2369 2687 2733
Q 2419 3097 1959 3097
z
M 1959 3584
Q 2709 3584 3137 3096
Q 3566 2609 3566 1747
Q 3566 888 3137 398
Q 2709 -91 1959 -91
Q 1206 -91 779 398
Q 353 888 353 1747
Q 353 2609 779 3096
Q 1206 3584 1959 3584
z
" transform="scale(0.015625)"/>
     </defs>
     <use xlink:href="#DejaVuSans-4d"/>
     <use xlink:href="#DejaVuSans-61" transform="translate(86.279297 0)"/>
     <use xlink:href="#DejaVuSans-6e" transform="translate(147.558594 0)"/>
     <use xlink:href="#DejaVuSans-64" transform="translate(210.9375 0)"/>
     <use xlink:href="#DejaVuSans-65" transform="translate(274.414062 0)"/>
     <use xlink:href="#DejaVuSans-6c" transform="translate(335.9375 0)"/>
     <use xlink:href="#DejaVuSans-20" transform="translate(363.720703 0)"/>
     <use xlink:href="#DejaVuSans-70" transform="translate(395.507812 0)"/>
     <use xlink:href="#DejaVuSans-72" transform="translate(458.984375 0)"/>
     <use xlink:href="#DejaVuSans-65" transform="translate(497.847656 0)"/>
     <use xlink:href="#DejaVuSans-73" transform="translate(559.371094 0)"/>
     <use xlink:href="#DejaVuSans-73" transform="translate(611.470703 0)"/>
     <use xlink:href="#DejaVuSans-75" transform="translate(663.570312 0)"/>
     <use xlink:href="#DejaVuSans-72" transform="translate(726.949219 0)"/>
     <use xlink:href="#DejaVuSans-65" transform="translate(765.8125 0)"/>
     <use xlink:href="#DejaVuSans-20" transform="translate(827.335938 0)"/>
     <use xlink:href="#DejaVuSans-72" transform="translate(859.123047 0)"/>
     <use xlink:href="#DejaVuSans-65" transform="translate(897.986328 0)"/>
     <use xlink:href="#DejaVuSans-73" transform="translate(959.509766 0)"/>
     <use xlink:href="#DejaVuSans-70" transform="translate(1011.609375 0)"/>
     <use xlink:href="#DejaVuSans-6f" transform="translate(1075.085938 0)"/>
     <use xlink:href="#DejaVuSans-6e" transform="translate(1136.267578 0)"/>
     <use xlink:href="#DejaVuSans-73" transform="translate(1199.646484 0)"/>
     <use xlink:href="#DejaVuSans-65" transform="translate(1251.746094 0)"/>
    </g>
   </g>
   <g id="legend_1">
    <g id="patch_7">
     <path d="M 175.667656 57.144146
L 363.392656 57.144146
Q 364.892656 57.144146 364.892656 55.644146
L 364.892656 23.368365
Q 364.892656 21.868365 363.392656 21.868365
L 175.667656 21.868365
Q 174.167656 21.868365 174.167656 23.368365
L 174.167656 55.644146
Q 174.167656 57.144146 175.667656 57.144146
z
" style="fill: #ffffff; opacity: 0.8; stroke: #cccccc; stroke-linejoin: miter"/>
    </g>
    <g id="line2d_35">
     <path d="M 177.167656 27.942193
L 184.667656 27.942193
L 192.167656 27.942193
" style="fill: none; stroke: #005f73; stroke-width: 1.7; stroke-linecap: square"/>
    </g>
    <g id="text_18">
     <!-- Q2/Q1, $x=0$ m -->
     <g transform="translate(198.167656 30.567193) scale(0.075 -0.075)">
      <defs>
       <path id="DejaVuSans-51" d="M 2522 4238
Q 1834 4238 1429 3725
Q 1025 3213 1025 2328
Q 1025 1447 1429 934
Q 1834 422 2522 422
Q 3209 422 3611 934
Q 4013 1447 4013 2328
Q 4013 3213 3611 3725
Q 3209 4238 2522 4238
z
M 3406 84
L 4238 -825
L 3475 -825
L 2784 -78
Q 2681 -84 2626 -87
Q 2572 -91 2522 -91
Q 1538 -91 948 567
Q 359 1225 359 2328
Q 359 3434 948 4092
Q 1538 4750 2522 4750
Q 3503 4750 4090 4092
Q 4678 3434 4678 2328
Q 4678 1516 4351 937
Q 4025 359 3406 84
z
" transform="scale(0.015625)"/>
       <path id="DejaVuSans-2f" d="M 1625 4666
L 2156 4666
L 531 -594
L 0 -594
L 1625 4666
z
" transform="scale(0.015625)"/>
       <path id="DejaVuSans-2c" d="M 750 794
L 1409 794
L 1409 256
L 897 -744
L 494 -744
L 750 256
L 750 794
z
" transform="scale(0.015625)"/>
       <path id="DejaVuSans-Oblique-78" d="M 3841 3500
L 2234 1784
L 3219 0
L 2559 0
L 1819 1388
L 531 0
L -166 0
L 1556 1844
L 641 3500
L 1300 3500
L 1972 2234
L 3144 3500
L 3841 3500
z
" transform="scale(0.015625)"/>
       <path id="DejaVuSans-3d" d="M 678 2906
L 4684 2906
L 4684 2381
L 678 2381
L 678 2906
z
M 678 1631
L 4684 1631
L 4684 1100
L 678 1100
L 678 1631
z
" transform="scale(0.015625)"/>
      </defs>
      <use xlink:href="#DejaVuSans-51" transform="translate(0 0.78125)"/>
      <use xlink:href="#DejaVuSans-32" transform="translate(78.710938 0.78125)"/>
      <use xlink:href="#DejaVuSans-2f" transform="translate(142.333984 0.78125)"/>
      <use xlink:href="#DejaVuSans-51" transform="translate(176.025391 0.78125)"/>
      <use xlink:href="#DejaVuSans-31" transform="translate(254.736328 0.78125)"/>
      <use xlink:href="#DejaVuSans-2c" transform="translate(318.359375 0.78125)"/>
      <use xlink:href="#DejaVuSans-20" transform="translate(350.146484 0.78125)"/>
      <use xlink:href="#DejaVuSans-Oblique-78" transform="translate(381.933594 0.78125)"/>
      <use xlink:href="#DejaVuSans-3d" transform="translate(460.595703 0.78125)"/>
      <use xlink:href="#DejaVuSans-30" transform="translate(563.867188 0.78125)"/>
      <use xlink:href="#DejaVuSans-20" transform="translate(627.490234 0.78125)"/>
      <use xlink:href="#DejaVuSans-6d" transform="translate(659.277344 0.78125)"/>
     </g>
    </g>
    <g id="line2d_36">
     <path d="M 177.167656 38.950787
L 184.667656 38.950787
L 192.167656 38.950787
" style="fill: none; stroke-dasharray: 4.07,1.76; stroke-dashoffset: 0; stroke: #005f73; stroke-width: 1.1"/>
    </g>
    <g id="text_19">
     <!-- series, $x=0$ m -->
     <g transform="translate(198.167656 41.575787) scale(0.075 -0.075)">
      <use xlink:href="#DejaVuSans-73" transform="translate(0 0.015625)"/>
      <use xlink:href="#DejaVuSans-65" transform="translate(52.099609 0.015625)"/>
      <use xlink:href="#DejaVuSans-72" transform="translate(113.623047 0.015625)"/>
      <use xlink:href="#DejaVuSans-69" transform="translate(154.736328 0.015625)"/>
      <use xlink:href="#DejaVuSans-65" transform="translate(182.519531 0.015625)"/>
      <use xlink:href="#DejaVuSans-73" transform="translate(244.042969 0.015625)"/>
      <use xlink:href="#DejaVuSans-2c" transform="translate(296.142578 0.015625)"/>
      <use xlink:href="#DejaVuSans-20" transform="translate(327.929688 0.015625)"/>
      <use xlink:href="#DejaVuSans-Oblique-78" transform="translate(359.716797 0.015625)"/>
      <use xlink:href="#DejaVuSans-3d" transform="translate(438.378906 0.015625)"/>
      <use xlink:href="#DejaVuSans-30" transform="translate(541.650391 0.015625)"/>
      <use xlink:href="#DejaVuSans-20" transform="translate(605.273438 0.015625)"/>
      <use xlink:href="#DejaVuSans-6d" transform="translate(637.060547 0.015625)"/>
     </g>
    </g>
    <g id="line2d_37">
     <path d="M 177.167656 49.959381
L 184.667656 49.959381
L 192.167656 49.959381
" style="fill: none; stroke: #ca6702; stroke-width: 1.7; stroke-linecap: square"/>
    </g>
    <g id="text_20">
     <!-- Q2/Q1, $x=0.3$ m -->
     <g transform="translate(198.167656 52.584381) scale(0.075 -0.075)">
      <use xlink:href="#DejaVuSans-51" transform="translate(0 0.78125)"/>
      <use xlink:href="#DejaVuSans-32" transform="translate(78.710938 0.78125)"/>
      <use xlink:href="#DejaVuSans-2f" transform="translate(142.333984 0.78125)"/>
      <use xlink:href="#DejaVuSans-51" transform="translate(176.025391 0.78125)"/>
      <use xlink:href="#DejaVuSans-31" transform="translate(254.736328 0.78125)"/>
      <use xlink:href="#DejaVuSans-2c" transform="translate(318.359375 0.78125)"/>
      <use xlink:href="#DejaVuSans-20" transform="translate(350.146484 0.78125)"/>
      <use xlink:href="#DejaVuSans-Oblique-78" transform="translate(381.933594 0.78125)"/>
      <use xlink:href="#DejaVuSans-3d" transform="translate(460.595703 0.78125)"/>
      <use xlink:href="#DejaVuSans-30" transform="translate(563.867188 0.78125)"/>
      <use xlink:href="#DejaVuSans-2e" transform="translate(627.490234 0.78125)"/>
      <use xlink:href="#DejaVuSans-33" transform="translate(659.277344 0.78125)"/>
      <use xlink:href="#DejaVuSans-20" transform="translate(722.900391 0.78125)"/>
      <use xlink:href="#DejaVuSans-6d" transform="translate(754.6875 0.78125)"/>
     </g>
    </g>
    <g id="line2d_38">
     <path d="M 277.142656 27.942193
L 284.642656 27.942193
L 292.142656 27.942193
" style="fill: none; stroke-dasharray: 4.07,1.76; stroke-dashoffset: 0; stroke: #ca6702; stroke-width: 1.1"/>
    </g>
    <g id="text_21">
     <!-- series, $x=0.3$ m -->
     <g transform="translate(298.142656 30.567193) scale(0.075 -0.075)">
      <use xlink:href="#DejaVuSans-73" transform="translate(0 0.015625)"/>
      <use xlink:href="#DejaVuSans-65" transform="translate(52.099609 0.015625)"/>
      <use xlink:href="#DejaVuSans-72" transform="translate(113.623047 0.015625)"/>
      <use xlink:href="#DejaVuSans-69" transform="translate(154.736328 0.015625)"/>
      <use xlink:href="#DejaVuSans-65" transform="translate(182.519531 0.015625)"/>
      <use xlink:href="#DejaVuSans-73" transform="translate(244.042969 0.015625)"/>
      <use xlink:href="#DejaVuSans-2c" transform="translate(296.142578 0.015625)"/>
      <use xlink:href="#DejaVuSans-20" transform="translate(327.929688 0.015625)"/>
      <use xlink:href="#DejaVuSans-Oblique-78" transform="translate(359.716797 0.015625)"/>
      <use xlink:href="#DejaVuSans-3d" transform="translate(438.378906 0.015625)"/>
      <use xlink:href="#DejaVuSans-30" transform="translate(541.650391 0.015625)"/>
      <use xlink:href="#DejaVuSans-2e" transform="translate(605.273438 0.015625)"/>
      <use xlink:href="#DejaVuSans-33" transform="translate(637.060547 0.015625)"/>
      <use xlink:href="#DejaVuSans-20" transform="translate(700.683594 0.015625)"/>
      <use xlink:href="#DejaVuSans-6d" transform="translate(732.470703 0.015625)"/>
     </g>
    </g>
    <g id="line2d_39">
     <path d="M 277.142656 38.950787
L 284.642656 38.950787
L 292.142656 38.950787
" style="fill: none; stroke: #9b2226; stroke-width: 1.7; stroke-linecap: square"/>
    </g>
    <g id="text_22">
     <!-- Q2/Q1, $x=0.8$ m -->
     <g transform="translate(298.142656 41.575787) scale(0.075 -0.075)">
      <defs>
       <path id="DejaVuSans-38" d="M 2034 2216
Q 1584 2216 1326 1975
Q 1069 1734 1069 1313
Q 1069 891 1326 650
Q 1584 409 2034 409
Q 2484 409 2743 651
Q 3003 894 3003 1313
Q 3003 1734 2745 1975
Q 2488 2216 2034 2216
z
M 1403 2484
Q 997 2584 770 2862
Q 544 3141 544 3541
Q 544 4100 942 4425
Q 1341 4750 2034 4750
Q 2731 4750 3128 4425
Q 3525 4100 3525 3541
Q 3525 3141 3298 2862
Q 3072 2584 2669 2484
Q 3125 2378 3379 2068
Q 3634 1759 3634 1313
Q 3634 634 3220 271
Q 2806 -91 2034 -91
Q 1263 -91 848 271
Q 434 634 434 1313
Q 434 1759 690 2068
Q 947 2378 1403 2484
z
M 1172 3481
Q 1172 3119 1398 2916
Q 1625 2713 2034 2713
Q 2441 2713 2670 2916
Q 2900 3119 2900 3481
Q 2900 3844 2670 4047
Q 2441 4250 2034 4250
Q 1625 4250 1398 4047
Q 1172 3844 1172 3481
z
" transform="scale(0.015625)"/>
      </defs>
      <use xlink:href="#DejaVuSans-51" transform="translate(0 0.78125)"/>
      <use xlink:href="#DejaVuSans-32" transform="translate(78.710938 0.78125)"/>
      <use xlink:href="#DejaVuSans-2f" transform="translate(142.333984 0.78125)"/>
      <use xlink:href="#DejaVuSans-51" transform="translate(176.025391 0.78125)"/>
      <use xlink:href="#DejaVuSans-31" transform="translate(254.736328 0.78125)"/>
      <use xlink:href="#DejaVuSans-2c" transform="translate(318.359375 0.78125)"/>
      <use xlink:href="#DejaVuSans-20" transform="translate(350.146484 0.78125)"/>
      <use xlink:href="#DejaVuSans-Oblique-78" transform="translate(381.933594 0.78125)"/>
      <use xlink:href="#DejaVuSans-3d" transform="translate(460.595703 0.78125)"/>
      <use xlink:href="#DejaVuSans-30" transform="translate(563.867188 0.78125)"/>
      <use xlink:href="#DejaVuSans-2e" transform="translate(627.490234 0.78125)"/>
      <use xlink:href="#DejaVuSans-38" transform="translate(656.652344 0.78125)"/>
      <use xlink:href="#DejaVuSans-20" transform="translate(720.275391 0.78125)"/>
      <use xlink:href="#DejaVuSans-6d" transform="translate(752.0625 0.78125)"/>
     </g>
    </g>
    <g id="line2d_40">
     <path d="M 277.142656 49.959381
L 284.642656 49.959381
L 292.142656 49.959381
" style="fill: none; stroke-dasharray: 4.07,1.76; stroke-dashoffset: 0; stroke: #9b2226; stroke-width: 1.1"/>
    </g>
    <g id="text_23">
     <!-- series, $x=0.8$ m -->
     <g transform="translate(298.142656 52.584381) scale(0.075 -0.075)">
      <use xlink:href="#DejaVuSans-73" transform="translate(0 0.015625)"/>
      <use xlink:href="#DejaVuSans-65" transform="translate(52.099609 0.015625)"/>
      <use xlink:href="#DejaVuSans-72" transform="translate(113.623047 0.015625)"/>
      <use xlink:href="#DejaVuSans-69" transform="translate(154.736328 0.015625)"/>
      <use xlink:href="#DejaVuSans-65" transform="translate(182.519531 0.015625)"/>
      <use xlink:href="#DejaVuSans-73" transform="translate(244.042969 0.015625)"/>
      <use xlink:href="#DejaVuSans-2c" transform="translate(296.142578 0.015625)"/>
      <use xlink:href="#DejaVuSans-20" transform="translate(327.929688 0.015625)"/>
      <use xlink:href="#DejaVuSans-Oblique-78" transform="translate(359.716797 0.015625)"/>
      <use xlink:href="#DejaVuSans-3d" transform="translate(438.378906 0.015625)"/>
      <use xlink:href="#DejaVuSans-30" transform="translate(541.650391 0.015625)"/>
      <use xlink:href="#DejaVuSans-2e" transform="translate(605.273438 0.015625)"/>
      <use xlink:href="#DejaVuSans-38" transform="translate(634.435547 0.015625)"/>
      <use xlink:href="#DejaVuSans-20" transform="translate(698.058594 0.015625)"/>
      <use xlink:href="#DejaVuSans-6d" transform="translate(729.845703 0.015625)"/>
     </g>
    </g>
   </g>
  </g>
  <g id="axes_2">
   <g id="patch_8">
    <path d="M 409.627656 269.04351
L 741.866947 269.04351
L 741.866947 18.118365
L 409.627656 18.118365
z
" style="fill: #ffffff"/>
   </g>
   <g id="matplotlib.axis_3">
    <g id="xtick_9">
     <g id="line2d_41">
      <path d="M 409.627656 269.04351
L 409.627656 18.118365
" clip-path="url(#p3a2fb36990)" style="fill: none; stroke: #b0b0b0; stroke-opacity: 0.25; stroke-width: 0.8; stroke-linecap: square"/>
     </g>
     <g id="line2d_42">
      <g>
       <use xlink:href="#mf8ec010021" x="409.627656" y="269.04351" style="stroke: #000000; stroke-width: 0.8"/>
      </g>
     </g>
     <g id="text_24">
      <!-- 0.00 -->
      <g transform="translate(398.494844 283.641948) scale(0.1 -0.1)">
       <use xlink:href="#DejaVuSans-30"/>
       <use xlink:href="#DejaVuSans-2e" transform="translate(63.623047 0)"/>
       <use xlink:href="#DejaVuSans-30" transform="translate(95.410156 0)"/>
       <use xlink:href="#DejaVuSans-30" transform="translate(159.033203 0)"/>
      </g>
     </g>
    </g>
    <g id="xtick_10">
     <g id="line2d_43">
      <path d="M 451.157568 269.04351
L 451.157568 18.118365
" clip-path="url(#p3a2fb36990)" style="fill: none; stroke: #b0b0b0; stroke-opacity: 0.25; stroke-width: 0.8; stroke-linecap: square"/>
     </g>
     <g id="line2d_44">
      <g>
       <use xlink:href="#mf8ec010021" x="451.157568" y="269.04351" style="stroke: #000000; stroke-width: 0.8"/>
      </g>
     </g>
     <g id="text_25">
      <!-- 0.01 -->
      <g transform="translate(440.024755 283.641948) scale(0.1 -0.1)">
       <use xlink:href="#DejaVuSans-30"/>
       <use xlink:href="#DejaVuSans-2e" transform="translate(63.623047 0)"/>
       <use xlink:href="#DejaVuSans-30" transform="translate(95.410156 0)"/>
       <use xlink:href="#DejaVuSans-31" transform="translate(159.033203 0)"/>
      </g>
     </g>
    </g>
    <g id="xtick_11">
     <g id="line2d_45">
      <path d="M 492.687479 269.04351
L 492.687479 18.118365
" clip-path="url(#p3a2fb36990)" style="fill: none; stroke: #b0b0b0; stroke-opacity: 0.25; stroke-width: 0.8; stroke-linecap: square"/>
     </g>
     <g id="line2d_46">
      <g>
       <use xlink:href="#mf8ec010021" x="492.687479" y="269.04351" style="stroke: #000000; stroke-width: 0.8"/>
      </g>
     </g>
     <g id="text_26">
      <!-- 0.02 -->
      <g transform="translate(481.554667 283.641948) scale(0.1 -0.1)">
       <use xlink:href="#DejaVuSans-30"/>
       <use xlink:href="#DejaVuSans-2e" transform="translate(63.623047 0)"/>
       <use xlink:href="#DejaVuSans-30" transform="translate(95.410156 0)"/>
       <use xlink:href="#DejaVuSans-32" transform="translate(159.033203 0)"/>
      </g>
     </g>
    </g>
    <g id="xtick_12">
     <g id="line2d_47">
      <path d="M 534.21739 269.04351
L 534.21739 18.118365
" clip-path="url(#p3a2fb36990)" style="fill: none; stroke: #b0b0b0; stroke-opacity: 0.25; stroke-width: 0.8; stroke-linecap: square"/>
     </g>
     <g id="line2d_48">
      <g>
       <use xlink:href="#mf8ec010021" x="534.21739" y="269.04351" style="stroke: #000000; stroke-width: 0.8"/>
      </g>
     </g>
     <g id="text_27">
      <!-- 0.03 -->
      <g transform="translate(523.084578 283.641948) scale(0.1 -0.1)">
       <use xlink:href="#DejaVuSans-30"/>
       <use xlink:href="#DejaVuSans-2e" transform="translate(63.623047 0)"/>
       <use xlink:href="#DejaVuSans-30" transform="translate(95.410156 0)"/>
       <use xlink:href="#DejaVuSans-33" transform="translate(159.033203 0)"/>
      </g>
     </g>
    </g>
    <g id="xtick_13">
     <g id="line2d_49">
      <path d="M 575.747302 269.04351
L 575.747302 18.118365
" clip-path="url(#p3a2fb36990)" style="fill: none; stroke: #b0b0b0; stroke-opacity: 0.25; stroke-width: 0.8; stroke-linecap: square"/>
     </g>
     <g id="line2d_50">
      <g>
       <use xlink:href="#mf8ec010021" x="575.747302" y="269.04351" style="stroke: #000000; stroke-width: 0.8"/>
      </g>
     </g>
     <g id="text_28">
      <!-- 0.04 -->
      <g transform="translate(564.614489 283.641948) scale(0.1 -0.1)">
       <use xlink:href="#DejaVuSans-30"/>
       <use xlink:href="#DejaVuSans-2e" transform="translate(63.623047 0)"/>
       <use xlink:href="#DejaVuSans-30" transform="translate(95.410156 0)"/>
       <use xlink:href="#DejaVuSans-34" transform="translate(159.033203 0)"/>
      </g>
     </g>
    </g>
    <g id="xtick_14">
     <g id="line2d_51">
      <path d="M 617.277213 269.04351
L 617.277213 18.118365
" clip-path="url(#p3a2fb36990)" style="fill: none; stroke: #b0b0b0; stroke-opacity: 0.25; stroke-width: 0.8; stroke-linecap: square"/>
     </g>
     <g id="line2d_52">
      <g>
       <use xlink:href="#mf8ec010021" x="617.277213" y="269.04351" style="stroke: #000000; stroke-width: 0.8"/>
      </g>
     </g>
     <g id="text_29">
      <!-- 0.05 -->
      <g transform="translate(606.144401 283.641948) scale(0.1 -0.1)">
       <use xlink:href="#DejaVuSans-30"/>
       <use xlink:href="#DejaVuSans-2e" transform="translate(63.623047 0)"/>
       <use xlink:href="#DejaVuSans-30" transform="translate(95.410156 0)"/>
       <use xlink:href="#DejaVuSans-35" transform="translate(159.033203 0)"/>
      </g>
     </g>
    </g>
    <g id="xtick_15">
     <g id="line2d_53">
      <path d="M 658.807125 269.04351
L 658.807125 18.118365
" clip-path="url(#p3a2fb36990)" style="fill: none; stroke: #b0b0b0; stroke-opacity: 0.25; stroke-width: 0.8; stroke-linecap: square"/>
     </g>
     <g id="line2d_54">
      <g>
       <use xlink:href="#mf8ec010021" x="658.807125" y="269.04351" style="stroke: #000000; stroke-width: 0.8"/>
      </g>
     </g>
     <g id="text_30">
      <!-- 0.06 -->
      <g transform="translate(647.674312 283.641948) scale(0.1 -0.1)">
       <use xlink:href="#DejaVuSans-30"/>
       <use xlink:href="#DejaVuSans-2e" transform="translate(63.623047 0)"/>
       <use xlink:href="#DejaVuSans-30" transform="translate(95.410156 0)"/>
       <use xlink:href="#DejaVuSans-36" transform="translate(159.033203 0)"/>
      </g>
     </g>
    </g>
    <g id="xtick_16">
     <g id="line2d_55">
      <path d="M 700.337036 269.04351
L 700.337036 18.118365
" clip-path="url(#p3a2fb36990)" style="fill: none; stroke: #b0b0b0; stroke-opacity: 0.25; stroke-width: 0.8; stroke-linecap: square"/>
     </g>
     <g id="line2d_56">
      <g>
       <use xlink:href="#mf8ec010021" x="700.337036" y="269.04351" style="stroke: #000000; stroke-width: 0.8"/>
      </g>
     </g>
     <g id="text_31">
      <!-- 0.07 -->
      <g transform="translate(689.204224 283.641948) scale(0.1 -0.1)">
       <use xlink:href="#DejaVuSans-30"/>
       <use xlink:href="#DejaVuSans-2e" transform="translate(63.623047 0)"/>
       <use xlink:href="#DejaVuSans-30" transform="translate(95.410156 0)"/>
       <use xlink:href="#DejaVuSans-37" transform="translate(159.033203 0)"/>
      </g>
     </g>
    </g>
    <g id="xtick_17">
     <g id="line2d_57">
      <path d="M 741.866947 269.04351
L 741.866947 18.118365
" clip-path="url(#p3a2fb36990)" style="fill: none; stroke: #b0b0b0; stroke-opacity: 0.25; stroke-width: 0.8; stroke-linecap: square"/>
     </g>
     <g id="line2d_58">
      <g>
       <use xlink:href="#mf8ec010021" x="741.866947" y="269.04351" style="stroke: #000000; stroke-width: 0.8"/>
      </g>
     </g>
     <g id="text_32">
      <!-- 0.08 -->
      <g transform="translate(730.734135 283.641948) scale(0.1 -0.1)">
       <use xlink:href="#DejaVuSans-30"/>
       <use xlink:href="#DejaVuSans-2e" transform="translate(63.623047 0)"/>
       <use xlink:href="#DejaVuSans-30" transform="translate(95.410156 0)"/>
       <use xlink:href="#DejaVuSans-38" transform="translate(159.033203 0)"/>
      </g>
     </g>
    </g>
    <g id="text_33">
     <!-- time [s] -->
     <g transform="translate(556.355896 297.320073) scale(0.1 -0.1)">
      <use xlink:href="#DejaVuSans-74"/>
      <use xlink:href="#DejaVuSans-69" transform="translate(39.208984 0)"/>
      <use xlink:href="#DejaVuSans-6d" transform="translate(66.992188 0)"/>
      <use xlink:href="#DejaVuSans-65" transform="translate(164.404297 0)"/>
      <use xlink:href="#DejaVuSans-20" transform="translate(225.927734 0)"/>
      <use xlink:href="#DejaVuSans-5b" transform="translate(257.714844 0)"/>
      <use xlink:href="#DejaVuSans-73" transform="translate(296.728516 0)"/>
      <use xlink:href="#DejaVuSans-5d" transform="translate(348.828125 0)"/>
     </g>
    </g>
   </g>
   <g id="matplotlib.axis_4">
    <g id="ytick_7">
     <g id="line2d_59">
      <path d="M 409.627656 258.119313
L 741.866947 258.119313
" clip-path="url(#p3a2fb36990)" style="fill: none; stroke: #b0b0b0; stroke-opacity: 0.25; stroke-width: 0.8; stroke-linecap: square"/>
     </g>
     <g id="line2d_60">
      <g>
       <use xlink:href="#m0c32bdb2d2" x="409.627656" y="258.119313" style="stroke: #000000; stroke-width: 0.8"/>
      </g>
     </g>
     <g id="text_34">
      <!-- 0 -->
      <g transform="translate(396.265156 261.918532) scale(0.1 -0.1)">
       <use xlink:href="#DejaVuSans-30"/>
      </g>
     </g>
    </g>
    <g id="ytick_8">
     <g id="line2d_61">
      <path d="M 409.627656 206.376517
L 741.866947 206.376517
" clip-path="url(#p3a2fb36990)" style="fill: none; stroke: #b0b0b0; stroke-opacity: 0.25; stroke-width: 0.8; stroke-linecap: square"/>
     </g>
     <g id="line2d_62">
      <g>
       <use xlink:href="#m0c32bdb2d2" x="409.627656" y="206.376517" style="stroke: #000000; stroke-width: 0.8"/>
      </g>
     </g>
     <g id="text_35">
      <!-- 10 -->
      <g transform="translate(389.902656 210.175736) scale(0.1 -0.1)">
       <use xlink:href="#DejaVuSans-31"/>
       <use xlink:href="#DejaVuSans-30" transform="translate(63.623047 0)"/>
      </g>
     </g>
    </g>
    <g id="ytick_9">
     <g id="line2d_63">
      <path d="M 409.627656 154.633722
L 741.866947 154.633722
" clip-path="url(#p3a2fb36990)" style="fill: none; stroke: #b0b0b0; stroke-opacity: 0.25; stroke-width: 0.8; stroke-linecap: square"/>
     </g>
     <g id="line2d_64">
      <g>
       <use xlink:href="#m0c32bdb2d2" x="409.627656" y="154.633722" style="stroke: #000000; stroke-width: 0.8"/>
      </g>
     </g>
     <g id="text_36">
      <!-- 20 -->
      <g transform="translate(389.902656 158.432941) scale(0.1 -0.1)">
       <use xlink:href="#DejaVuSans-32"/>
       <use xlink:href="#DejaVuSans-30" transform="translate(63.623047 0)"/>
      </g>
     </g>
    </g>
    <g id="ytick_10">
     <g id="line2d_65">
      <path d="M 409.627656 102.890927
L 741.866947 102.890927
" clip-path="url(#p3a2fb36990)" style="fill: none; stroke: #b0b0b0; stroke-opacity: 0.25; stroke-width: 0.8; stroke-linecap: square"/>
     </g>
     <g id="line2d_66">
      <g>
       <use xlink:href="#m0c32bdb2d2" x="409.627656" y="102.890927" style="stroke: #000000; stroke-width: 0.8"/>
      </g>
     </g>
     <g id="text_37">
      <!-- 30 -->
      <g transform="translate(389.902656 106.690145) scale(0.1 -0.1)">
       <use xlink:href="#DejaVuSans-33"/>
       <use xlink:href="#DejaVuSans-30" transform="translate(63.623047 0)"/>
      </g>
     </g>
    </g>
    <g id="ytick_11">
     <g id="line2d_67">
      <path d="M 409.627656 51.148131
L 741.866947 51.148131
" clip-path="url(#p3a2fb36990)" style="fill: none; stroke: #b0b0b0; stroke-opacity: 0.25; stroke-width: 0.8; stroke-linecap: square"/>
     </g>
     <g id="line2d_68">
      <g>
       <use xlink:href="#m0c32bdb2d2" x="409.627656" y="51.148131" style="stroke: #000000; stroke-width: 0.8"/>
      </g>
     </g>
     <g id="text_38">
      <!-- 40 -->
      <g transform="translate(389.902656 54.94735) scale(0.1 -0.1)">
       <use xlink:href="#DejaVuSans-34"/>
       <use xlink:href="#DejaVuSans-30" transform="translate(63.623047 0)"/>
      </g>
     </g>
    </g>
    <g id="text_39">
     <!-- water pressure at $x=0.8$ m [kPa] -->
     <g transform="translate(383.802656 227.280938) rotate(-90) scale(0.1 -0.1)">
      <use xlink:href="#DejaVuSans-77" transform="translate(0 0.015625)"/>
      <use xlink:href="#DejaVuSans-61" transform="translate(81.787109 0.015625)"/>
      <use xlink:href="#DejaVuSans-74" transform="translate(143.066406 0.015625)"/>
      <use xlink:href="#DejaVuSans-65" transform="translate(182.275391 0.015625)"/>
      <use xlink:href="#DejaVuSans-72" transform="translate(243.798828 0.015625)"/>
      <use xlink:href="#DejaVuSans-20" transform="translate(284.912109 0.015625)"/>
      <use xlink:href="#DejaVuSans-70" transform="translate(316.699219 0.015625)"/>
      <use xlink:href="#DejaVuSans-72" transform="translate(380.175781 0.015625)"/>
      <use xlink:href="#DejaVuSans-65" transform="translate(421.289062 0.015625)"/>
      <use xlink:href="#DejaVuSans-73" transform="translate(482.8125 0.015625)"/>
      <use xlink:href="#DejaVuSans-73" transform="translate(534.912109 0.015625)"/>
      <use xlink:href="#DejaVuSans-75" transform="translate(587.011719 0.015625)"/>
      <use xlink:href="#DejaVuSans-72" transform="translate(650.390625 0.015625)"/>
      <use xlink:href="#DejaVuSans-65" transform="translate(691.503906 0.015625)"/>
      <use xlink:href="#DejaVuSans-20" transform="translate(753.027344 0.015625)"/>
      <use xlink:href="#DejaVuSans-61" transform="translate(784.814453 0.015625)"/>
      <use xlink:href="#DejaVuSans-74" transform="translate(846.09375 0.015625)"/>
      <use xlink:href="#DejaVuSans-20" transform="translate(885.302734 0.015625)"/>
      <use xlink:href="#DejaVuSans-Oblique-78" transform="translate(917.089844 0.015625)"/>
      <use xlink:href="#DejaVuSans-3d" transform="translate(995.751953 0.015625)"/>
      <use xlink:href="#DejaVuSans-30" transform="translate(1099.023438 0.015625)"/>
      <use xlink:href="#DejaVuSans-2e" transform="translate(1162.646484 0.015625)"/>
      <use xlink:href="#DejaVuSans-38" transform="translate(1191.808594 0.015625)"/>
      <use xlink:href="#DejaVuSans-20" transform="translate(1255.431641 0.015625)"/>
      <use xlink:href="#DejaVuSans-6d" transform="translate(1287.21875 0.015625)"/>
      <use xlink:href="#DejaVuSans-20" transform="translate(1384.630859 0.015625)"/>
      <use xlink:href="#DejaVuSans-5b" transform="translate(1416.417969 0.015625)"/>
      <use xlink:href="#DejaVuSans-6b" transform="translate(1455.431641 0.015625)"/>
      <use xlink:href="#DejaVuSans-50" transform="translate(1513.341797 0.015625)"/>
      <use xlink:href="#DejaVuSans-61" transform="translate(1573.644531 0.015625)"/>
      <use xlink:href="#DejaVuSans-5d" transform="translate(1634.923828 0.015625)"/>
     </g>
    </g>
   </g>
   <g id="line2d_69">
    <path d="M 417.933639 29.524053
L 426.239621 57.434728
L 434.545603 80.367634
L 442.851585 98.301045
L 451.157568 111.896788
L 459.46355 122.444535
L 467.769532 130.843085
L 476.075514 138.044421
L 484.381497 144.046668
L 492.687479 149.132557
L 500.993461 153.505275
L 509.299444 157.31261
L 517.605426 160.664273
L 525.911408 163.643469
L 542.523373 168.908723
L 550.829355 171.262365
L 559.135337 173.412299
L 567.44132 175.389884
L 575.747302 177.220655
L 592.359266 180.521141
L 617.277213 184.962263
L 633.889178 187.602208
L 650.501142 190.011478
L 683.725072 194.443357
L 708.643018 197.472248
L 741.866947 201.177412
L 757 202.803869
L 757 202.803869
" clip-path="url(#p3a2fb36990)" style="fill: none; stroke-dasharray: 1.5,2.475; stroke-dashoffset: 0; stroke: #1f77b4; stroke-width: 1.5"/>
   </g>
   <g id="line2d_70">
    <path d="M 426.239621 53.137792
L 442.851585 91.568325
L 459.46355 116.894428
L 476.075514 133.797626
L 492.687479 145.867004
L 509.299444 154.752825
L 525.911408 161.597484
L 542.523373 167.227515
L 559.135337 172.020929
L 575.747302 176.061717
L 592.359266 179.547264
L 608.971231 182.697837
L 625.583196 185.592033
L 642.19516 188.203047
L 658.807125 190.590664
L 692.031054 195.026552
L 708.643018 197.048781
L 741.866947 200.797986
L 757 202.435761
L 757 202.435761
" clip-path="url(#p3a2fb36990)" style="fill: none; stroke-dasharray: 9.6,2.4,1.5,2.4; stroke-dashoffset: 0; stroke: #ff7f0e; stroke-width: 1.5"/>
   </g>
   <g id="line2d_71">
    <path d="M 417.933639 30.142003
L 426.239621 57.827127
L 434.545603 80.514631
L 442.851585 98.3295
L 451.157568 111.879036
L 459.46355 122.41112
L 467.769532 130.806001
L 476.075514 138.007304
L 484.381497 144.011558
L 492.687479 149.100355
L 500.993461 153.476218
L 509.299444 157.286648
L 517.605426 160.641252
L 525.911408 163.623207
L 542.523373 168.892952
L 550.829355 171.248524
L 559.135337 173.400424
L 567.44132 175.379914
L 575.747302 177.212475
L 592.359266 180.516132
L 617.277213 184.960554
L 633.889178 187.60227
L 650.501142 190.012952
L 683.725072 194.446251
L 708.643018 197.475634
L 741.866947 201.180723
L 757 202.80691
L 757 202.80691
" clip-path="url(#p3a2fb36990)" style="fill: none; stroke: #2ca02c; stroke-width: 1.5; stroke-linecap: square"/>
   </g>
   <g id="patch_9">
    <path d="M 409.627656 269.04351
L 409.627656 18.118365
" style="fill: none; stroke: #000000; stroke-width: 0.8; stroke-linejoin: miter; stroke-linecap: square"/>
   </g>
   <g id="patch_10">
    <path d="M 741.866947 269.04351
L 741.866947 18.118365
" style="fill: none; stroke: #000000; stroke-width: 0.8; stroke-linejoin: miter; stroke-linecap: square"/>
   </g>
   <g id="patch_11">
    <path d="M 409.627656 269.04351
L 741.866947 269.04351
" style="fill: none; stroke: #000000; stroke-width: 0.8; stroke-linejoin: miter; stroke-linecap: square"/>
   </g>
   <g id="patch_12">
    <path d="M 409.627656 18.118365
L 741.866947 18.118365
" style="fill: none; stroke: #000000; stroke-width: 0.8; stroke-linejoin: miter; stroke-linecap: square"/>
   </g>
   <g id="text_40">
    <!-- Drainage-front refinement -->
    <g transform="translate(497.007614 12.118365) scale(0.12 -0.12)">
     <defs>
      <path id="DejaVuSans-44" d="M 1259 4147
L 1259 519
L 2022 519
Q 2988 519 3436 956
Q 3884 1394 3884 2338
Q 3884 3275 3436 3711
Q 2988 4147 2022 4147
L 1259 4147
z
M 628 4666
L 1925 4666
Q 3281 4666 3915 4102
Q 4550 3538 4550 2338
Q 4550 1131 3912 565
Q 3275 0 1925 0
L 628 0
L 628 4666
z
" transform="scale(0.015625)"/>
      <path id="DejaVuSans-67" d="M 2906 1791
Q 2906 2416 2648 2759
Q 2391 3103 1925 3103
Q 1463 3103 1205 2759
Q 947 2416 947 1791
Q 947 1169 1205 825
Q 1463 481 1925 481
Q 2391 481 2648 825
Q 2906 1169 2906 1791
z
M 3481 434
Q 3481 -459 3084 -895
Q 2688 -1331 1869 -1331
Q 1566 -1331 1297 -1286
Q 1028 -1241 775 -1147
L 775 -588
Q 1028 -725 1275 -790
Q 1522 -856 1778 -856
Q 2344 -856 2625 -561
Q 2906 -266 2906 331
L 2906 616
Q 2728 306 2450 153
Q 2172 0 1784 0
Q 1141 0 747 490
Q 353 981 353 1791
Q 353 2603 747 3093
Q 1141 3584 1784 3584
Q 2172 3584 2450 3431
Q 2728 3278 2906 2969
L 2906 3500
L 3481 3500
L 3481 434
z
" transform="scale(0.015625)"/>
      <path id="DejaVuSans-2d" d="M 313 2009
L 1997 2009
L 1997 1497
L 313 1497
L 313 2009
z
" transform="scale(0.015625)"/>
      <path id="DejaVuSans-66" d="M 2375 4863
L 2375 4384
L 1825 4384
Q 1516 4384 1395 4259
Q 1275 4134 1275 3809
L 1275 3500
L 2222 3500
L 2222 3053
L 1275 3053
L 1275 0
L 697 0
L 697 3053
L 147 3053
L 147 3500
L 697 3500
L 697 3744
Q 697 4328 969 4595
Q 1241 4863 1831 4863
L 2375 4863
z
" transform="scale(0.015625)"/>
     </defs>
     <use xlink:href="#DejaVuSans-44"/>
     <use xlink:href="#DejaVuSans-72" transform="translate(77.001953 0)"/>
     <use xlink:href="#DejaVuSans-61" transform="translate(118.115234 0)"/>
     <use xlink:href="#DejaVuSans-69" transform="translate(179.394531 0)"/>
     <use xlink:href="#DejaVuSans-6e" transform="translate(207.177734 0)"/>
     <use xlink:href="#DejaVuSans-61" transform="translate(270.556641 0)"/>
     <use xlink:href="#DejaVuSans-67" transform="translate(331.835938 0)"/>
     <use xlink:href="#DejaVuSans-65" transform="translate(395.3125 0)"/>
     <use xlink:href="#DejaVuSans-2d" transform="translate(456.835938 0)"/>
     <use xlink:href="#DejaVuSans-66" transform="translate(492.919922 0)"/>
     <use xlink:href="#DejaVuSans-72" transform="translate(528.125 0)"/>
     <use xlink:href="#DejaVuSans-6f" transform="translate(566.988281 0)"/>
     <use xlink:href="#DejaVuSans-6e" transform="translate(628.169922 0)"/>
     <use xlink:href="#DejaVuSans-74" transform="translate(691.548828 0)"/>
     <use xlink:href="#DejaVuSans-20" transform="translate(730.757812 0)"/>
     <use xlink:href="#DejaVuSans-72" transform="translate(762.544922 0)"/>
     <use xlink:href="#DejaVuSans-65" transform="translate(801.408203 0)"/>
     <use xlink:href="#DejaVuSans-66" transform="translate(862.931641 0)"/>
     <use xlink:href="#DejaVuSans-69" transform="translate(898.136719 0)"/>
     <use xlink:href="#DejaVuSans-6e" transform="translate(925.919922 0)"/>
     <use xlink:href="#DejaVuSans-65" transform="translate(989.298828 0)"/>
     <use xlink:href="#DejaVuSans-6d" transform="translate(1050.822266 0)"/>
     <use xlink:href="#DejaVuSans-65" transform="translate(1148.234375 0)"/>
     <use xlink:href="#DejaVuSans-6e" transform="translate(1209.757812 0)"/>
     <use xlink:href="#DejaVuSans-74" transform="translate(1273.136719 0)"/>
    </g>
   </g>
   <g id="legend_2">
    <g id="patch_13">
     <path d="M 637.466947 59.745865
L 736.266947 59.745865
Q 737.866947 59.745865 737.866947 58.145865
L 737.866947 23.718365
Q 737.866947 22.118365 736.266947 22.118365
L 637.466947 22.118365
Q 635.866947 22.118365 635.866947 23.718365
L 635.866947 58.145865
Q 635.866947 59.745865 637.466947 59.745865
z
" style="fill: #ffffff; opacity: 0.8; stroke: #cccccc; stroke-linejoin: miter"/>
    </g>
    <g id="line2d_72">
     <path d="M 639.066947 28.597115
L 647.066947 28.597115
L 655.066947 28.597115
" style="fill: none; stroke-dasharray: 1.5,2.475; stroke-dashoffset: 0; stroke: #1f77b4; stroke-width: 1.5"/>
    </g>
    <g id="text_41">
     <!-- 20x2, $\Delta t=0.002$ s -->
     <g transform="translate(661.466947 31.397115) scale(0.08 -0.08)">
      <defs>
       <path id="DejaVuSans-78" d="M 3513 3500
L 2247 1797
L 3578 0
L 2900 0
L 1881 1375
L 863 0
L 184 0
L 1544 1831
L 300 3500
L 978 3500
L 1906 2253
L 2834 3500
L 3513 3500
z
" transform="scale(0.015625)"/>
       <path id="DejaVuSans-394" d="M 2188 4044
L 906 525
L 3472 525
L 2188 4044
z
M 50 0
L 1831 4666
L 2547 4666
L 4325 0
L 50 0
z
" transform="scale(0.015625)"/>
       <path id="DejaVuSans-Oblique-74" d="M 2706 3500
L 2619 3053
L 1472 3053
L 1100 1153
Q 1081 1047 1072 975
Q 1063 903 1063 863
Q 1063 663 1183 572
Q 1303 481 1569 481
L 2150 481
L 2053 0
L 1503 0
Q 991 0 739 200
Q 488 400 488 806
Q 488 878 497 964
Q 506 1050 525 1153
L 897 3053
L 409 3053
L 500 3500
L 978 3500
L 1172 4494
L 1747 4494
L 1556 3500
L 2706 3500
z
" transform="scale(0.015625)"/>
      </defs>
      <use xlink:href="#DejaVuSans-32" transform="translate(0 0.78125)"/>
      <use xlink:href="#DejaVuSans-30" transform="translate(63.623047 0.78125)"/>
      <use xlink:href="#DejaVuSans-78" transform="translate(127.246094 0.78125)"/>
      <use xlink:href="#DejaVuSans-32" transform="translate(186.425781 0.78125)"/>
      <use xlink:href="#DejaVuSans-2c" transform="translate(250.048828 0.78125)"/>
      <use xlink:href="#DejaVuSans-20" transform="translate(281.835938 0.78125)"/>
      <use xlink:href="#DejaVuSans-394" transform="translate(313.623047 0.78125)"/>
      <use xlink:href="#DejaVuSans-Oblique-74" transform="translate(382.03125 0.78125)"/>
      <use xlink:href="#DejaVuSans-3d" transform="translate(440.722656 0.78125)"/>
      <use xlink:href="#DejaVuSans-30" transform="translate(543.994141 0.78125)"/>
      <use xlink:href="#DejaVuSans-2e" transform="translate(607.617188 0.78125)"/>
      <use xlink:href="#DejaVuSans-30" transform="translate(639.404297 0.78125)"/>
      <use xlink:href="#DejaVuSans-30" transform="translate(703.027344 0.78125)"/>
      <use xlink:href="#DejaVuSans-32" transform="translate(766.650391 0.78125)"/>
      <use xlink:href="#DejaVuSans-20" transform="translate(830.273438 0.78125)"/>
      <use xlink:href="#DejaVuSans-73" transform="translate(862.060547 0.78125)"/>
     </g>
    </g>
    <g id="line2d_73">
     <path d="M 639.066947 40.339615
L 647.066947 40.339615
L 655.066947 40.339615
" style="fill: none; stroke-dasharray: 9.6,2.4,1.5,2.4; stroke-dashoffset: 0; stroke: #ff7f0e; stroke-width: 1.5"/>
    </g>
    <g id="text_42">
     <!-- 40x4, $\Delta t=0.004$ s -->
     <g transform="translate(661.466947 43.139615) scale(0.08 -0.08)">
      <use xlink:href="#DejaVuSans-34" transform="translate(0 0.78125)"/>
      <use xlink:href="#DejaVuSans-30" transform="translate(63.623047 0.78125)"/>
      <use xlink:href="#DejaVuSans-78" transform="translate(127.246094 0.78125)"/>
      <use xlink:href="#DejaVuSans-34" transform="translate(186.425781 0.78125)"/>
      <use xlink:href="#DejaVuSans-2c" transform="translate(250.048828 0.78125)"/>
      <use xlink:href="#DejaVuSans-20" transform="translate(281.835938 0.78125)"/>
      <use xlink:href="#DejaVuSans-394" transform="translate(313.623047 0.78125)"/>
      <use xlink:href="#DejaVuSans-Oblique-74" transform="translate(382.03125 0.78125)"/>
      <use xlink:href="#DejaVuSans-3d" transform="translate(440.722656 0.78125)"/>
      <use xlink:href="#DejaVuSans-30" transform="translate(543.994141 0.78125)"/>
      <use xlink:href="#DejaVuSans-2e" transform="translate(607.617188 0.78125)"/>
      <use xlink:href="#DejaVuSans-30" transform="translate(639.404297 0.78125)"/>
      <use xlink:href="#DejaVuSans-30" transform="translate(703.027344 0.78125)"/>
      <use xlink:href="#DejaVuSans-34" transform="translate(766.650391 0.78125)"/>
      <use xlink:href="#DejaVuSans-20" transform="translate(830.273438 0.78125)"/>
      <use xlink:href="#DejaVuSans-73" transform="translate(862.060547 0.78125)"/>
     </g>
    </g>
    <g id="line2d_74">
     <path d="M 639.066947 52.082115
L 647.066947 52.082115
L 655.066947 52.082115
" style="fill: none; stroke: #2ca02c; stroke-width: 1.5; stroke-linecap: square"/>
    </g>
    <g id="text_43">
     <!-- 40x4, $\Delta t=0.002$ s -->
     <g transform="translate(661.466947 54.882115) scale(0.08 -0.08)">
      <use xlink:href="#DejaVuSans-34" transform="translate(0 0.78125)"/>
      <use xlink:href="#DejaVuSans-30" transform="translate(63.623047 0.78125)"/>
      <use xlink:href="#DejaVuSans-78" transform="translate(127.246094 0.78125)"/>
      <use xlink:href="#DejaVuSans-34" transform="translate(186.425781 0.78125)"/>
      <use xlink:href="#DejaVuSans-2c" transform="translate(250.048828 0.78125)"/>
      <use xlink:href="#DejaVuSans-20" transform="translate(281.835938 0.78125)"/>
      <use xlink:href="#DejaVuSans-394" transform="translate(313.623047 0.78125)"/>
      <use xlink:href="#DejaVuSans-Oblique-74" transform="translate(382.03125 0.78125)"/>
      <use xlink:href="#DejaVuSans-3d" transform="translate(440.722656 0.78125)"/>
      <use xlink:href="#DejaVuSans-30" transform="translate(543.994141 0.78125)"/>
      <use xlink:href="#DejaVuSans-2e" transform="translate(607.617188 0.78125)"/>
      <use xlink:href="#DejaVuSans-30" transform="translate(639.404297 0.78125)"/>
      <use xlink:href="#DejaVuSans-30" transform="translate(703.027344 0.78125)"/>
      <use xlink:href="#DejaVuSans-32" transform="translate(766.650391 0.78125)"/>
      <use xlink:href="#DejaVuSans-20" transform="translate(830.273438 0.78125)"/>
      <use xlink:href="#DejaVuSans-73" transform="translate(862.060547 0.78125)"/>
     </g>
    </g>
   </g>
  </g>
 </g>
 <defs>
  <clipPath id="p7629ad5401">
   <rect x="36.403365" y="18.118365" width="332.239291" height="250.925145"/>
  </clipPath>
  <clipPath id="p3a2fb36990">
   <rect x="409.627656" y="18.118365" width="332.239291" height="250.925145"/>
  </clipPath>
 </defs>
</svg>
